<svg xmlns="http://www.w3.org/2000/svg" viewBox="14 14 328 356" role="img" aria-label="CloverHR"><title>CloverHR</title><path fill="#369B48" fill-rule="evenodd" d="M126 29.5 140 30.5 153 36.5 162.5 46 170.5 60 175.5 76 177.5 94 178.5 95 182 156.5 183.5 155 184.5 146 187.5 137 187.5 133 190.5 124 192.5 112 204.5 76 209.5 66 219.5 53 224 48.5 235 41.5 244 38.5 254 37.5 255 38.5 264 39.5 273 44.5 279.5 51 283.5 57 290.5 72 295 76.5 310 85.5 319.5 95 325.5 108 325.5 125 322.5 134 314.5 146 306 153.5 297 159.5 288 163.5 285 163.5 273 167.5 263 168.5 262 169.5 248 170.5 247 171.5 223 172.5 222 173.5 209 173.5 208 174.5 200.5 175 209 176.5 210 177.5 214 177.5 215 178.5 227 179.5 233 181.5 248 183.5 282 193.5 300 204.5 307.5 212 314.5 223 317.5 233 317.5 246 312.5 259 306 266.5 296 273.5 291 276.5 289 276.5 278 281.5 272.5 287 265.5 298 256 306.5 243 312.5 240 312.5 239 313.5 228 313.5 214 308.5 206 302.5 198.5 294 194.5 288 190.5 279 185.5 262 185.5 258 184.5 257 183.5 241 182.5 240 182.5 230 181.5 229 181.5 216 180.5 215 180.5 200 179.5 199 179.5 193 178.5 193 178.5 196 174.5 209 174.5 213 173.5 214 172.5 230 171.5 231 171.5 260 172.5 261 172.5 270 173.5 271 175.5 286 183.5 309 192.5 324 203.5 335 206.5 340 206.5 345 204.5 349 202 351.5 197 353.5 189 352.5 184.5 349 177.5 339 169.5 321 169.5 318 165.5 307 165.5 303 163.5 297 163.5 291 162.5 290 162.5 281 161.5 280 162 249.5 155.5 267 147.5 281 132 297.5 119 304.5 113 306.5 100 307.5 99 306.5 91 305.5 83 301.5 75.5 295 71.5 289 64.5 274 61 270.5 44 259.5 38.5 254 34.5 249 29.5 236 30.5 222 32.5 216 38.5 205 49 194.5 65 185.5 81 180.5 91 179.5 92 178.5 98 178.5 99 177.5 123 176.5 124 175.5 143 175.5 144 174.5 156 174.5 157 173.5 158 174.5 159.5 173 145 170.5 144 169.5 133 168.5 132 167.5 128 167.5 127 166.5 123 166.5 117 164.5 113 164.5 108 162.5 104 162.5 79 154.5 64 146.5 53.5 137 48.5 130 43.5 118 43.5 113 42.5 112 43.5 99 50.5 85 58 77.5 65 72.5 86 62.5 96.5 46 107 36.5 114 32.5 121 30.5 125 30.5Z"/></svg>
